<?xml version="1.0" standalone="no"?>
<!DOCTYPE svg PUBLIC "-//W3C//DTD SVG 20010904//EN"
 "http://www.w3.org/TR/2001/REC-SVG-20010904/DTD/svg10.dtd">
<svg version="1.0" xmlns="http://www.w3.org/2000/svg"
 width="1000.000000pt" height="1000.000000pt" viewBox="0 0 1000.000000 1000.000000"
 preserveAspectRatio="xMidYMid meet">
<metadata>
Created by potrace 1.11, written by Peter Selinger 2001-2013
</metadata>
<g transform="translate(0.000000,1000.000000) scale(0.100000,-0.100000)"
fill="#000000" stroke="none">
<path d="M5605 8658 c-151 -20 -329 -92 -435 -175 -74 -59 -156 -152 -203
-232 -49 -83 -101 -220 -111 -291 -3 -25 -8 -56 -11 -70 -15 -68 -5 -266 19
-385 17 -85 75 -249 121 -343 137 -282 392 -550 672 -710 138 -79 324 -149
443 -168 19 -3 53 -10 75 -14 69 -16 331 -4 410 18 161 44 269 102 377 201
362 334 376 920 35 1445 -197 301 -515 552 -840 661 -178 59 -394 84 -552 63z
m105 -147 c0 -3 -69 -75 -152 -158 l-153 -152 -78 79 -78 80 53 33 c77 48 135
73 224 96 99 25 184 35 184 22z m270 -22 c69 -15 180 -51 180 -58 0 -3 -111
-116 -245 -250 l-246 -245 -78 80 -79 79 201 203 c111 111 206 202 212 202 5
0 30 -5 55 -11z m409 -169 c36 -22 77 -48 90 -59 l24 -18 -282 -282 c-154
-154 -284 -281 -286 -281 -3 0 -40 34 -82 76 l-77 75 265 265 c145 145 268
264 273 264 6 0 39 -18 75 -40z m-1117 -196 l27 -30 -156 -155 -155 -154 5 70
c10 122 50 241 119 348 l30 48 52 -48 c28 -26 63 -62 78 -79z m1444 -74 c30
-30 54 -58 54 -61 0 -4 -94 -101 -210 -216 l-209 -210 -68 0 c-50 0 -85 -7
-130 -25 l-61 -25 -25 27 -26 27 287 289 287 290 24 -21 c13 -11 48 -45 77
-75z m-1197 -173 l44 -47 -244 -245 c-134 -134 -247 -241 -250 -237 -8 8 -44
123 -54 167 -3 17 -8 38 -11 48 -5 14 43 68 197 223 l203 203 35 -32 c20 -18
56 -53 80 -80z m1384 -74 c19 -32 44 -76 55 -99 l21 -41 -153 -152 c-131 -131
-155 -151 -167 -139 -23 23 -126 106 -145 116 -14 8 12 38 162 190 99 99 182
181 186 181 4 1 22 -25 41 -56z m-1151 -159 l76 -77 -282 -282 -281 -283 -22
24 c-12 13 -41 56 -64 95 l-42 71 264 264 c145 145 267 264 270 264 3 0 40
-34 81 -76z m1305 -201 c18 -71 20 -77 28 -143 l7 -53 -103 -103 c-57 -57
-106 -104 -110 -104 -3 0 -14 19 -25 43 -10 23 -34 68 -52 100 l-34 59 133
133 c74 74 135 132 137 130 2 -2 10 -29 19 -62z m-1074 -55 c-25 -32 -44 -105
-44 -169 l0 -68 -211 -211 -211 -211 -31 28 c-69 62 -126 118 -126 124 0 3
129 135 287 293 l287 287 30 -30 c21 -22 27 -33 19 -43z m419 -10 c149 -79
265 -223 348 -432 40 -98 91 -267 84 -277 -2 -4 -17 -4 -32 1 -15 5 -65 20
-112 35 -103 32 -120 39 -229 91 -257 124 -428 364 -357 502 60 115 174 146
298 80z m675 -385 c-8 -51 -28 -115 -53 -171 -40 -90 -45 -92 -66 -25 -10 32
-18 65 -18 73 0 12 127 150 138 150 2 0 1 -12 -1 -27z m-1048 -25 c11 -18 32
-46 47 -63 15 -16 37 -40 48 -53 l20 -23 -149 -149 c-83 -83 -154 -150 -160
-150 -12 0 -91 41 -154 80 l-43 27 178 181 c99 99 182 181 186 181 3 1 16 -14
27 -31z m308 -276 c37 -21 83 -44 101 -52 l34 -13 -109 -109 c-107 -108 -108
-108 -148 -103 -33 5 -125 22 -157 31 -5 1 -14 2 -20 3 -50 5 -41 21 88 150
71 72 132 131 136 131 3 0 37 -17 75 -38z m412 -178 c-19 -23 -214 -92 -264
-94 -5 0 23 33 64 74 l73 73 69 -20 c53 -15 66 -23 58 -33z"/>
<path d="M3910 8645 c-222 -49 -378 -188 -455 -406 -19 -54 -25 -119 -30 -369
-3 -124 -7 -241 -9 -260 -3 -19 -7 -64 -10 -100 -3 -36 -8 -76 -10 -90 -3 -14
-10 -59 -16 -100 -68 -420 -210 -824 -411 -1165 -133 -225 -187 -376 -206
-580 -35 -371 77 -706 329 -988 162 -180 434 -336 668 -382 113 -23 331 -34
395 -21 11 2 43 7 70 10 28 4 86 16 130 28 495 132 868 565 931 1080 11 96 4
333 -11 358 -2 3 -6 26 -10 50 -16 108 -61 219 -203 490 -214 411 -379 936
-417 1331 -4 35 -9 75 -11 89 -2 14 -6 126 -9 250 -7 315 -12 346 -71 465 -27
52 -92 137 -131 168 -13 10 -29 24 -36 32 -25 24 -122 74 -188 95 -78 25 -211
32 -289 15z m256 -161 c100 -34 208 -124 252 -211 44 -85 52 -139 57 -378 2
-127 7 -250 10 -275 3 -25 7 -65 10 -90 49 -462 215 -993 448 -1425 118 -220
158 -321 182 -465 20 -115 23 -199 13 -300 -44 -448 -354 -829 -783 -963 -44
-14 -91 -24 -190 -42 -53 -9 -242 -6 -312 6 -147 24 -288 76 -408 149 -38 23
-72 45 -75 49 -3 3 -23 19 -45 36 -67 49 -173 165 -229 250 -129 193 -190 395
-189 625 1 227 52 395 187 623 158 266 301 620 371 915 18 73 64 307 68 347 4
28 11 84 17 125 16 126 21 206 25 429 5 249 8 275 45 358 73 161 242 265 420
257 43 -2 99 -11 126 -20z"/>
<path d="M3950 6188 c-339 -31 -613 -295 -663 -638 -39 -265 82 -554 293 -701
19 -13 37 -27 40 -30 8 -10 153 -76 190 -88 100 -30 255 -37 360 -15 507 105
756 667 493 1116 -68 116 -200 235 -324 291 -132 60 -244 79 -389 65z m225
-165 c187 -47 347 -197 416 -390 31 -86 36 -255 9 -343 -55 -178 -160 -303
-320 -381 -331 -160 -733 25 -830 384 -19 69 -22 98 -17 182 7 112 22 168 69
257 127 239 405 359 673 291z"/>
<path d="M5792 5960 c-62 -13 -141 -56 -189 -102 -128 -125 -106 -310 51 -416
109 -73 273 -89 398 -38 62 25 69 26 95 12 95 -49 251 -54 357 -11 61 24 64
25 97 8 84 -42 222 -51 322 -20 64 20 140 71 178 118 47 60 59 113 59 271 0
136 -1 140 -26 164 l-25 26 -212 -4 c-202 -4 -215 -5 -276 -30 -64 -27 -64
-27 -101 -8 -48 25 -141 40 -215 36 -58 -4 -148 -29 -172 -48 -8 -6 -23 -3
-45 8 -71 37 -205 52 -296 34z m179 -150 c20 -6 54 -22 75 -36 50 -34 81 -36
125 -7 80 53 211 65 286 26 21 -11 53 -28 72 -38 37 -19 29 -22 140 40 30 16
60 20 189 23 l152 4 0 -90 c0 -76 -3 -94 -22 -122 -63 -92 -259 -115 -359 -41
-49 36 -70 35 -143 -5 -61 -33 -76 -37 -141 -37 -76 0 -117 11 -175 50 -45 30
-66 29 -118 -6 -141 -96 -382 -33 -382 99 0 104 161 179 301 140z"/>
<path d="M5783 5134 c-204 -54 -313 -223 -244 -380 79 -179 342 -256 544 -160
26 13 41 15 50 8 24 -20 111 -43 176 -47 79 -4 161 9 213 36 34 17 41 18 66 5
93 -48 251 -56 355 -16 96 36 184 118 204 192 4 13 9 92 10 175 4 153 4 153
-21 178 l-26 26 -189 -1 c-196 -2 -245 -8 -316 -40 l-42 -19 -61 25 c-103 41
-238 39 -344 -6 -45 -19 -50 -20 -80 -4 -17 9 -46 21 -62 26 -50 16 -177 17
-233 2z m174 -145 c29 -6 68 -21 88 -34 48 -33 75 -38 105 -20 95 56 167 71
255 53 27 -6 65 -21 85 -33 63 -40 74 -39 147 2 l68 38 153 3 152 4 0 -89 c0
-77 -3 -95 -22 -123 -35 -52 -105 -83 -191 -85 -76 -3 -115 8 -179 50 -44 29
-53 30 -93 9 -95 -52 -110 -57 -185 -57 -74 0 -109 10 -190 58 -33 20 -53 19
-81 -4 -47 -36 -93 -53 -155 -57 -133 -7 -244 59 -244 145 0 55 45 106 118
130 63 22 101 24 169 10z"/>
<path d="M6490 4255 c0 -84 -2 -82 90 -77 l58 4 -1 72 0 73 -73 0 -74 1 0 -73z"/>
<path d="M6789 4312 c-4 -70 -3 -132 1 -133 7 -1 91 -1 121 0 25 1 26 2 25 74
l-1 72 -73 2 c-61 1 -72 -1 -73 -15z"/>
<path d="M7089 4318 c-1 -7 -2 -41 -3 -75 l-1 -61 40 -4 c22 -2 56 -1 75 2
l35 5 0 70 0 70 -72 3 c-53 2 -73 -1 -74 -10z"/>
<path d="M1497 3569 c-122 -20 -230 -83 -290 -170 -142 -205 -41 -483 172
-474 31 2 69 8 85 14 28 11 28 12 11 38 -25 38 -42 111 -38 162 7 89 62 170
145 212 37 19 149 44 193 44 26 0 25 -25 -10 -170 -18 -73 -124 -541 -129
-569 -3 -12 -14 -64 -26 -116 -12 -52 -23 -102 -25 -110 -2 -8 -33 -148 -70
-310 -37 -162 -68 -301 -70 -310 -2 -8 -21 -94 -44 -190 -22 -96 -43 -194 -47
-216 -6 -41 -6 -42 32 -55 50 -16 158 -17 207 0 42 14 87 49 117 90 13 19 40
128 85 337 36 170 72 338 80 374 8 36 17 77 19 93 7 39 16 67 24 68 4 0 16 2
27 4 60 11 105 15 106 8 0 -4 2 -15 4 -24 1 -9 6 -47 9 -85 4 -38 8 -78 10
-89 2 -11 7 -45 11 -75 4 -30 11 -71 15 -90 5 -19 12 -49 14 -66 3 -17 17 -70
31 -119 90 -309 222 -451 410 -440 136 8 279 94 362 217 l25 37 42 -62 c115
-168 298 -224 571 -173 132 24 372 154 464 250 19 20 38 36 41 36 3 0 6 -29 7
-65 2 -80 36 -162 82 -195 141 -99 414 -28 628 164 55 50 54 50 88 -15 110
-215 417 -258 665 -94 252 168 431 525 431 860 0 312 -152 497 -418 510 -325
16 -629 -300 -729 -757 -9 -42 -17 -128 -18 -202 l-2 -129 -50 -34 c-129 -87
-263 -102 -299 -32 -29 54 -30 45 151 899 3 14 7 32 9 40 2 8 4 17 4 20 1 3
37 6 80 6 48 0 89 5 105 13 31 17 64 79 61 118 l-1 28 -102 3 c-74 2 -102 6
-102 15 0 7 9 55 21 107 11 52 23 106 25 120 3 14 9 43 14 65 15 66 13 75 -27
91 -77 32 -202 11 -265 -44 -39 -35 -54 -73 -86 -218 l-29 -129 -57 -6 c-79
-9 -111 -40 -122 -119 -4 -29 -2 -40 8 -41 7 -1 40 -3 73 -4 33 -2 61 -3 61
-4 1 0 -3 -20 -8 -43 -5 -24 -11 -52 -14 -63 -2 -11 -13 -63 -24 -115 -12 -52
-30 -138 -41 -190 -21 -99 -26 -125 -55 -250 -16 -68 -22 -79 -73 -129 -152
-147 -363 -240 -538 -236 -70 2 -89 6 -134 32 -59 33 -108 98 -112 148 -2 25
7 33 108 94 400 240 547 407 560 637 11 206 -107 314 -337 309 -313 -8 -573
-293 -675 -740 -21 -96 -32 -265 -19 -322 10 -49 -118 -136 -201 -136 -101 0
-185 125 -248 368 -22 86 -49 230 -60 325 -3 25 -8 54 -10 65 -2 11 -7 53 -11
93 -6 70 -5 73 20 93 139 109 313 298 386 418 102 170 143 347 99 433 -42 82
-168 125 -263 88 -18 -6 -26 -26 -44 -111 -50 -226 -141 -446 -245 -597 -90
-130 -240 -266 -339 -307 -45 -18 -45 -19 -22 87 8 40 17 83 20 94 2 12 13 66
25 120 12 55 22 108 24 119 3 19 73 347 90 421 3 16 13 21 37 22 48 1 88 49
88 105 -1 62 -17 79 -66 66 -34 -10 -133 -7 -189 5 -11 3 -74 16 -140 31 -127
28 -275 38 -358 24z m4153 -998 c25 -13 44 -35 64 -77 27 -52 30 -70 32 -160
3 -200 -64 -430 -174 -590 -66 -98 -130 -147 -209 -158 -126 -19 -203 105
-204 329 -1 97 6 147 32 245 43 160 124 295 219 365 85 62 177 80 240 46z
m-1958 -22 c26 -34 26 -119 0 -187 -50 -131 -185 -275 -385 -411 -27 -18 -51
-30 -54 -27 -9 9 16 163 43 266 64 245 191 395 328 388 39 -3 53 -8 68 -29z"/>
<path d="M7555 3339 c-58 -31 -75 -48 -101 -104 -84 -179 72 -332 251 -245
116 56 160 211 85 302 -57 69 -156 89 -235 47z"/>
<path d="M6598 2799 c-159 -25 -274 -104 -338 -234 -36 -73 -42 -100 -43 -190
-1 -91 8 -139 38 -201 42 -85 103 -139 285 -253 105 -66 132 -97 138 -162 12
-126 -89 -234 -218 -233 -108 0 -170 58 -178 166 -5 64 10 125 40 169 18 27
18 27 -10 45 -39 27 -143 25 -199 -4 -98 -51 -154 -188 -128 -317 11 -53 61
-129 111 -168 106 -81 277 -102 505 -62 43 8 143 49 181 76 57 39 110 102 139
164 34 73 43 116 43 220 0 139 -54 217 -219 314 -133 79 -182 118 -213 169
-23 41 -27 57 -26 122 2 105 36 174 103 209 56 30 137 5 166 -51 24 -47 21
-147 -5 -198 -24 -47 -21 -55 23 -69 93 -29 160 -12 214 54 38 46 51 95 49
182 -5 168 -113 252 -331 257 -44 2 -101 -1 -127 -5z"/>
<path d="M8337 2785 c-135 -39 -224 -109 -277 -220 -69 -143 -58 -325 28 -443
38 -53 113 -115 217 -178 98 -60 124 -80 154 -120 32 -43 30 -117 -3 -183 -69
-133 -267 -159 -345 -46 -43 63 -38 199 10 266 l20 28 -24 16 c-67 44 -190 22
-258 -46 -44 -44 -66 -90 -75 -160 -6 -43 -11 -51 -38 -64 -37 -17 -95 -32
-116 -30 -8 1 -27 3 -42 3 -36 2 -58 37 -64 99 -5 44 10 126 83 458 8 39 17
80 19 91 2 12 22 105 44 208 44 205 47 234 25 275 -42 82 -221 69 -368 -27
-107 -70 -125 -98 -106 -167 8 -29 39 -58 39 -36 0 4 11 13 25 19 19 9 27 8
40 -4 8 -9 15 -21 15 -27 0 -7 -21 -111 -46 -232 -25 -121 -48 -231 -50 -245
-3 -14 -14 -67 -25 -119 -76 -351 -75 -414 8 -497 110 -110 359 -83 544 59
l45 34 39 -43 c91 -100 272 -141 485 -110 274 41 435 219 426 475 -5 141 -60
216 -234 318 -128 75 -167 106 -199 160 -62 107 -23 281 76 333 56 29 138 3
167 -53 25 -46 22 -141 -5 -196 -11 -25 -21 -46 -21 -48 0 -11 81 -35 120 -36
120 -1 200 109 187 259 -10 132 -84 210 -227 240 -76 16 -218 11 -293 -11z"/>
</g>
</svg>
