<svg data-v-29081953="" xmlns="http://www.w3.org/2000/svg" viewBox="0 0 300 300"><!----><defs data-v-29081953=""><!----></defs><rect data-v-29081953="" fill="transparent" x="0" y="0" width="300px" height="300px" class="logo-background-square"></rect><!----><defs data-v-29081953=""><linearGradient data-v-29081953="" gradientTransform="rotate(25)" id="9ed3b7e9-e7cf-4eb5-90ca-4205dac2a405" x1="0%" y1="0%" x2="100%" y2="0%"><stop data-v-29081953="" offset="0%" stop-color="#21690F" stop-opacity="1"></stop><stop data-v-29081953="" offset="100%" stop-color="#88C848" stop-opacity="1"></stop></linearGradient></defs><g data-v-29081953="" id="a3fe38a8-6511-4985-b57f-1d78d81f3474" fill="url(#9ed3b7e9-e7cf-4eb5-90ca-4205dac2a405)" stroke="none" transform="matrix(3.6585640957063146,0,0,3.6585640957063146,32.68905620042891,33.16169289523363)"><path d="M19 55c5.514 0 10-4.486 10-10s-4.486-10-10-10S9 39.486 9 45s4.486 10 10 10zm0-18c4.411 0 8 3.589 8 8s-3.589 8-8 8-8-3.589-8-8 3.589-8 8-8z"></path><path d="M17.061 61.893c.66.073 1.316.109 1.967.109 4.191 0 8.148-1.504 11.307-4.332A17.027 17.027 0 0 0 36 45a16.96 16.96 0 0 0-2.126-8.225C29.312 28.573 27 20.199 27 11.885V10c0-4.411-3.589-8-8-8s-8 3.589-8 8v1.887c0 8.906-2.255 17.304-6.523 24.286-1.969 3.222-2.789 6.937-2.372 10.74.856 7.814 7.146 14.113 14.956 14.98zM6.184 37.216C10.643 29.92 13 21.162 13 11.887V10c0-3.309 2.691-6 6-6s6 2.691 6 6v1.885c0 8.659 2.397 17.36 7.125 25.862A14.948 14.948 0 0 1 34 45c0 4.261-1.822 8.335-4.999 11.18-3.22 2.883-7.379 4.209-11.72 3.725-6.887-.764-12.433-6.318-13.188-13.208-.368-3.362.355-6.639 2.091-9.481z"></path><path d="M60.69 15.16a21.924 21.924 0 0 0-2.723-4.696A23.816 23.816 0 0 0 55.9 8.101a23.147 23.147 0 0 0-1.544-1.412 21.91 21.91 0 0 0-4.49-2.918c-1.872-.906-3.794-1.495-5.71-1.752-4.33-.588-8.196.566-10.883 3.253-5.458 5.459-4.189 15.609 2.829 22.627 4.082 4.082 9.223 6.219 13.884 6.219 3.354 0 6.459-1.106 8.743-3.39 2.371-2.371 3.571-5.746 3.382-9.503-.101-2.027-.579-4.069-1.421-6.065zm-3.476 8.596a16.698 16.698 0 0 0-1.474-2.769l3.63-3.63a15.42 15.42 0 0 1 .7 3.542l-2.856 2.857zm1.355-8.425l-4.083 4.083c-.803-.803-1.594-1.415-2.37-1.873l4.926-4.926a19.654 19.654 0 0 1 1.527 2.716zm-2.743-4.328l-5.719 5.718a4.341 4.341 0 0 0-3.324.648L46 16.586l7.761-7.762c.244.222.486.452.724.69a21.5 21.5 0 0 1 1.341 1.489zM48.89 32.081a15.599 15.599 0 0 1-3.53-.712l3.629-3.629a17.078 17.078 0 0 0 2.769 1.474l-2.868 2.867zm-5.567-1.504a19.575 19.575 0 0 1-2.706-1.538l4.912-4.913c.432.731 1.044 1.518 1.884 2.359l-4.09 4.092zm6.294-24.679c.888.472 1.756 1.02 2.594 1.649l-7.625 7.625-2.122-2.122 7.153-7.152zm-8.567 5.738l-2.122-2.122 5.43-5.43c1.112.185 2.225.484 3.328.916l-6.636 6.636zm-3.535-3.535l-2.082-2.082c1.7-1.362 3.869-2.09 6.302-2.139l-4.22 4.221zm-1.414 1.414l-4.221 4.221c.053-2.367.754-4.555 2.147-6.295l2.074 2.074zm1.414 1.414l2.122 2.122-6.63 6.63a16.55 16.55 0 0 1-.93-3.313l5.438-5.439zm3.535 3.535l2.122 2.122-7.624 7.623c-.63-.84-1.18-1.707-1.651-2.591l7.153-7.154zm-4.216 11.287L44.586 18l.779.779a4.343 4.343 0 0 0-.643 3.328l-5.719 5.719a21.369 21.369 0 0 1-1.488-1.34c-.239-.239-.457-.489-.681-.735zm14.969 6.245l2.011-2.011c.708.232 1.376.42 1.956.569-1.181.753-2.528 1.226-3.967 1.442zm-2.975-6.925c-2.346-2.346-2.821-4.25-1.414-5.657.528-.528 1.111-.79 1.766-.79.293 0 .601.053.924.157.904.293 1.902.982 2.968 2.047.206.206.399.425.583.658.834 1.07 1.606 2.59 2.236 4.399a29.17 29.17 0 0 1 .835 2.841c-2.084-.499-5.881-1.638-7.898-3.655zm9.721 2.699a32.66 32.66 0 0 0-.576-1.945l2.017-2.017c-.22 1.46-.705 2.803-1.441 3.962zM44 46c1.1 0 2.14-.282 3-.804 1.721 1.045 4.279 1.045 6 0 .86.522 1.9.804 3 .804 2.757 0 5-1.794 5-4v-3a1 1 0 0 0-1-1h-4c-1.1 0-2.14.282-3 .804-1.721-1.045-4.279-1.045-6 0-.86-.522-1.9-.804-3-.804-2.757 0-5 1.794-5 4s2.243 4 5 4zm0-6c.905 0 1.761.29 2.349.794a1 1 0 0 0 1.302 0c1.177-1.009 3.521-1.009 4.698 0a1 1 0 0 0 1.302 0C54.239 40.29 55.095 40 56 40h3v2c0 1.084-1.374 2-3 2-.905 0-1.761-.29-2.349-.794a.995.995 0 0 0-1.302 0c-1.177 1.009-3.521 1.009-4.698 0a1 1 0 0 0-1.302 0C45.761 43.71 44.905 44 44 44c-1.626 0-3-.916-3-2s1.374-2 3-2zM44 57c1.1 0 2.14-.282 3-.804 1.721 1.045 4.279 1.045 6 0 .86.522 1.9.804 3 .804 2.757 0 5-1.794 5-4v-3a1 1 0 0 0-1-1h-4c-1.1 0-2.14.282-3 .804-1.721-1.045-4.279-1.045-6 0-.86-.522-1.9-.804-3-.804-2.757 0-5 1.794-5 4s2.243 4 5 4zm0-6c.905 0 1.761.29 2.349.794a1 1 0 0 0 1.302 0c1.177-1.009 3.521-1.009 4.698 0a1 1 0 0 0 1.302 0C54.239 51.29 55.095 51 56 51h3v2c0 1.084-1.374 2-3 2-.905 0-1.761-.29-2.349-.794a.995.995 0 0 0-1.302 0c-1.177 1.009-3.521 1.009-4.698 0a1 1 0 0 0-1.302 0C45.761 54.71 44.905 55 44 55c-1.626 0-3-.916-3-2s1.374-2 3-2zM60 60h2v2h-2zM56 60h2v2h-2zM52 60h2v2h-2z"></path></g><!----></svg>